#!OML:ASF F:\VICON\USERDATA\INSTALL\rory3\rory3.ASF
:FULLY-SPECIFIED
:DEGREES
454
root 3.47241 16.9166 -1.06676 -183.733 -113.334 177.618
lowerback 13.6965 1.82815 -4.20984
upperback 3.76536 1.69063 -0.53335
thorax -3.8094 0.802733 1.53658
lowerneck -5.74189 4.1091 -5.84473
upperneck 12.151 5.57082 4.21498
head 4.28556 2.69116 2.53044
rclavicle -4.27387e-015 6.36111e-015
rhumerus -10.752 22.0381 -83.9946
rradius 124.874
rwrist 0.992336
rhand -34.5675 11.4074
rfingers 7.12502
rthumb -7.7273 -18.4314
lclavicle -4.27387e-015 6.36111e-015
lhumerus 1.42632 -9.32324 67.8207
lradius 134.716
lwrist 12.0061
lhand -19.285 17.0281
lfingers 7.12502
lthumb 7.03002 46.8914
rfemur -8.93469 15.5359 1.52555
rtibia 62.6056
rfoot 0.964174 13.5036
rtoes -16.5799
lfemur -34.1675 6.85813 3.71467
ltibia 71.146
lfoot -2.35186 -6.12134
ltoes -8.60633
455
root 3.43327 16.8677 -1.08316 -184.157 -113.544 177.755
lowerback 14.0129 1.98878 -4.11493
upperback 3.78092 1.89435 -0.577749
thorax -3.97235 0.903823 1.39376
lowerneck -6.09788 3.94862 -6.30485
upperneck 12.1411 5.42667 4.2382
head 4.33688 2.60549 2.61459
rclavicle 7.25564e-015 7.15625e-015
rhumerus -11.1169 22.3507 -84.1781
rradius 124.745
rwrist 1.14391
rhand -34.8326 11.4033
rfingers 7.12502
rthumb -7.98321 -18.4259
lclavicle 7.25564e-015 7.15625e-015
lhumerus 1.92642 -10.0251 67.9764
lradius 134.308
lwrist 11.0784
lhand -19.4313 16.8482
lfingers 7.12502
lthumb 6.8888 46.7161
rfemur -8.85933 14.0955 1.89182
rtibia 63.5701
rfoot -2.64128 9.74646
rtoes -17.4602
lfemur -34.1786 5.92278 3.8323
ltibia 70.0089
lfoot -3.25699 -5.905
ltoes -9.23299
456
root 3.3935 16.8036 -1.09709 -184.209 -113.689 177.458
lowerback 14.2554 2.15212 -3.8
upperback 3.82773 2.13888 -0.607602
thorax -4.05616 1.02196 1.13598
lowerneck -6.27782 3.81707 -6.77507
upperneck 11.9777 5.31221 4.28792
head 4.30987 2.537 2.70148
rclavicle -4.12478e-014 1.59028e-015
rhumerus -11.4327 22.6106 -84.2693
rradius 124.555
rwrist 1.38219
rhand -35.2365 11.5392
rfingers 7.12502
rthumb -8.37301 -18.2749
lclavicle -4.12478e-014 1.59028e-015
lhumerus 2.39748 -10.6813 68.1877
lradius 133.998
lwrist 10.7271
lhand -19.108 16.3668
lfingers 7.12502
lthumb 7.20093 46.2243
rfemur -8.56004 12.7046 2.47911
rtibia 63.9099
rfoot -6.74427 7.51027
rtoes -17.8512
lfemur -34.0322 4.92897 4.18934
ltibia 68.6675
lfoot -3.64187 -6.45737
ltoes -11.9986
457
root 3.35032 16.7281 -1.10169 -184.247 -113.65 177.165
lowerback 14.3494 2.31796 -3.49696
upperback 3.88932 2.39561 -0.608892
thorax -4.04291 1.14503 0.916498
lowerneck -6.43822 3.75229 -7.20822
upperneck 11.7812 5.29339 4.25579
head 4.26819 2.51315 2.76019
rclavicle -6.10269e-014 1.59028e-015
rhumerus -11.6999 22.9242 -84.3079
rradius 124.341
rwrist 1.55784
rhand -35.4537 11.7308
rfingers 7.12502
rthumb -8.58264 -18.0747
lclavicle -6.10269e-014 1.59028e-015
lhumerus 2.76978 -11.2886 68.4961
lradius 133.779
lwrist 10.5344
lhand -19.0201 16.3425
lfingers 7.12502
lthumb 7.28575 46.197
rfemur -8.1312 11.4559 3.02308
rtibia 63.7128
rfoot -10.809 5.40888
rtoes -17.2825
lfemur -33.6849 3.88379 4.58859
ltibia 67.1798
lfoot -3.74926 -7.86631
ltoes -15.3176
458
root 3.30384 16.6425 -1.09761 -183.728 -113.381 176.338
lowerback 14.2744 2.51444 -2.92773
upperback 3.92587 2.74214 -0.577176
thorax -3.9547 1.3122 0.57161
lowerneck -6.71885 3.70706 -7.62744
upperneck 11.7725 5.29382 4.34086
head 4.2993 2.50343 2.86068
rclavicle -2.61402e-014 7.15625e-015
rhumerus -11.899 23.1762 -84.4661
rradius 124.008
rwrist 1.39272
rhand -35.5287 12.0118
rfingers 7.12502
rthumb -8.655 -17.7908
lclavicle -2.61402e-014 7.15625e-015
lhumerus 3.12512 -12.0232 68.7194
lradius 133.665
lwrist 10.4719
lhand -19.1928 16.7062
lfingers 7.12502
lthumb 7.11906 46.5665
rfemur -7.6649 10.4278 3.75548
rtibia 63.2069
rfoot -14.6197 3.54875
rtoes -18.3526
lfemur -33.2371 2.83101 5.29855
ltibia 65.604
lfoot -3.58937 -9.66814
ltoes -17.0142
459
root 3.25987 16.5411 -1.08858 -182.625 -112.964 175.01
lowerback 14.066 2.73244 -2.13473
upperback 3.8956 3.15532 -0.525395
thorax -3.84873 1.51419 0.116181
lowerneck -7.04215 3.64624 -8.02151
upperneck 11.8751 5.26596 4.50136
head 4.37153 2.48319 2.98278
rclavicle 2.33572e-014 -4.77083e-015
rhumerus -12.0344 23.444 -84.6845
rradius 123.479
rwrist 1.33727
rhand -35.7633 12.1268
rfingers 7.12502
rthumb -8.88136 -17.6663
lclavicle 2.33572e-014 -4.77083e-015
lhumerus 3.1527 -12.6812 69.2234
lradius 133.611
lwrist 10.4017
lhand -19.0069 16.5622
lfingers 7.12502
lthumb 7.29848 46.4164
rfemur -7.42136 9.51175 4.63007
rtibia 62.979
rfoot -18.22 1.90646
rtoes -22.6837
lfemur -32.8049 1.76983 6.27178
ltibia 63.9231
lfoot -2.95145 -11.6185
ltoes -18.444
460
root 3.21065 16.4327 -1.08117 -181.955 -112.416 174.219
lowerback 13.7439 3.03522 -1.6411
upperback 3.83084 3.63584 -0.540783
thorax -3.72049 1.75213 -0.244862
lowerneck -7.26073 3.62737 -8.3213
upperneck 11.9128 5.28091 4.63061
head 4.40707 2.48682 3.07798
rclavicle -3.90612e-014 -1.03368e-014
rhumerus -12.1122 23.6513 -84.836
rradius 122.761
rwrist 1.70418
rhand -35.8273 11.8481
rfingers 7.12502
rthumb -8.94318 -17.9424
lclavicle -3.90612e-014 -1.03368e-014
lhumerus 2.70092 -13.252 70.1818
lradius 133.582
lwrist 10.1878
lhand -18.7471 16.1032
lfingers 7.12502
lthumb 7.54926 45.9485
rfemur -6.86461 10.0304 4.92177
rtibia 63.0713
rfoot -18.9905 4.11202
rtoes -14.1914
lfemur -32.2655 0.72101 7.02665
ltibia 62.2687
lfoot -1.72905 -13.6396
ltoes -19.1928
461
root 3.15225 16.36 -1.06989 -181.85 -111.649 174.048
lowerback 13.3421 3.43266 -1.43375
upperback 3.74727 4.19529 -0.692632
thorax -3.56965 2.03087 -0.591651
lowerneck -7.38868 3.70387 -8.38384
upperneck 11.9105 5.38933 4.7574
head 4.41463 2.54696 3.13545
rclavicle -2.03754e-014 4.77083e-015
rhumerus -12.1382 23.7388 -85.0718
rradius 121.903
rwrist 1.99798
rhand -35.6841 11.8469
rfingers 7.12502
rthumb -8.80499 -17.9494
lclavicle -2.03754e-014 4.77083e-015
lhumerus 2.31642 -13.9243 70.9795
lradius 133.568
lwrist 9.90208
lhand -19.093 16.1391
lfingers 7.12502
lthumb 7.21542 45.9961
rfemur -6.96738 8.54325 5.22328
rtibia 64.1298
rfoot -20.2495 -1.56164
rtoes -23.2785
lfemur -31.3531 -0.268472 7.43937
ltibia 60.7182
lfoot -0.367565 -15.3254
ltoes -16.2707
462
root 3.09787 16.2402 -1.05945 -181.646 -110.716 173.804
lowerback 12.8798 3.80762 -1.14059
upperback 3.63425 4.73263 -0.943929
thorax -3.39348 2.29963 -1.07549
lowerneck -7.57801 3.80201 -8.05571
upperneck 11.9262 5.51353 4.64054
head 4.45529 2.61702 3.05817
rclavicle -1.03269e-013 3.57812e-014
rhumerus -12.0507 23.8869 -85.5236
rradius 120.807
rwrist 2.02279
rhand -34.6196 11.5098
rfingers 7.12502
rthumb -7.77759 -18.3271
lclavicle -1.03269e-013 3.57812e-014
lhumerus 2.06653 -14.5267 71.4477
lradius 133.617
lwrist 9.53745
lhand -19.1109 15.5615
lfingers 7.12502
lthumb 7.19813 45.4191
rfemur -6.87543 8.57476 5.2981
rtibia 64.7008
rfoot -21.6402 -2.76694
rtoes -22.1044
lfemur -30.5037 -1.08868 7.97586
ltibia 59.8235
lfoot -2.39402 -16.2341
ltoes -19.3342
463
root 3.04027 16.1299 -1.04449 -181.894 -109.735 174.075
lowerback 12.3282 4.13162 -1.01472
upperback 3.48704 5.18125 -1.23827
thorax -3.20546 2.5262 -1.4842
lowerneck -7.74915 3.931 -7.84991
upperneck 11.8469 5.68739 4.57115
head 4.4563 2.71101 3.01492
rclavicle 7.96133e-014 -1.59028e-014
rhumerus -11.8082 24.304 -85.9868
rradius 119.362
rwrist 1.88267
rhand -33.7487 10.8483
rfingers 7.12502
rthumb -6.93698 -19.018
lclavicle 7.96133e-014 -1.59028e-014
lhumerus 1.59591 -14.8539 71.9142
lradius 133.792
lwrist 9.34835
lhand -18.1657 13.501
lfingers 7.12502
lthumb 8.11042 43.3254
rfemur -6.82349 8.81805 5.14896
rtibia 65.2144
rfoot -23.5458 -4.0131
rtoes -28.4724
lfemur -29.614 -1.9072 8.29764
ltibia 59.621
lfoot -5.34454 -13.5215
ltoes -20.5949
464
root 2.9765 16.0271 -1.02706 -182.672 -108.761 174.83
lowerback 11.7479 4.38589 -1.07379
upperback 3.40102 5.51789 -1.47646
thorax -2.95597 2.69755 -1.70361
lowerneck -8.0369 4.11089 -8.08193
upperneck 11.6554 5.97331 4.69574
head 4.41636 2.85692 3.10721
rclavicle 2.13694e-014 4.77083e-015
rhumerus -11.3389 24.9578 -86.2177
rradius 117.673
rwrist 1.56037
rhand -35.2418 12.1026
rfingers 7.12502
rthumb -8.37813 -17.7113
lclavicle 2.13694e-014 4.77083e-015
lhumerus 0.996626 -14.863 72.473
lradius 134.069
lwrist 9.31173
lhand -18.5741 14.5533
lfingers 7.12502
lthumb 7.7162 44.3925
rfemur -6.58552 9.22821 4.76656
rtibia 65.3185
rfoot -25.5918 -4.44345
rtoes -31.8195
lfemur -28.7796 -2.76846 8.39842
ltibia 60.1436
lfoot -7.62279 -11.3872
ltoes -28.2252
465
root 2.91365 15.916 -1.00801 -183.781 -107.765 175.767
lowerback 11.3105 4.56156 -1.20152
upperback 3.35757 5.74225 -1.64101
thorax -2.75408 2.81182 -1.79865
lowerneck -8.51505 4.37431 -8.35755
upperneck 11.6059 6.41005 4.6849
head 4.44447 3.06468 3.18121
rclavicle -5.76476e-014 1.19271e-014
rhumerus -10.675 25.7817 -86.4099
rradius 115.802
rwrist 1.19121
rhand -37.1306 13.3825
rfingers 7.12502
rthumb -10.2006 -16.3502
lclavicle -5.76476e-014 1.19271e-014
lhumerus 0.288368 -14.5776 73.0762
lradius 134.347
lwrist 8.98761
lhand -18.7031 14.6277
lfingers 7.12502
lthumb 7.59175 44.4715
rfemur -6.24757 9.7882 4.24442
rtibia 65.3767
rfoot -27.4713 -4.22276
rtoes -30.8027
lfemur -27.9664 -3.35761 8.33758
ltibia 61.1052
lfoot -9.21866 -12.4856
ltoes -29.6624
466
root 2.85206 15.7973 -0.989007 -184.929 -106.725 176.578
lowerback 11.0503 4.76707 -1.34489
upperback 3.26142 6.00259 -1.74872
thorax -2.71018 2.94284 -1.84755
lowerneck -8.95092 4.70056 -8.30132
upperneck 11.7509 6.91026 4.4438
head 4.54012 3.29684 3.13982
rclavicle -2.3556e-014 2.06736e-014
rhumerus -10.0105 26.5108 -86.7012
rradius 113.682
rwrist 0.655506
rhand -37.1839 12.9059
rfingers 7.12502
rthumb -10.252 -16.8243
lclavicle -2.3556e-014 2.06736e-014
lhumerus -0.520356 -14.3833 73.7252
lradius 134.621
lwrist 8.5238
lhand -19.1762 14.9814
lfingers 7.12502
lthumb 7.13509 44.8411
rfemur -5.84427 10.5504 3.7681
rtibia 65.4836
rfoot -28.7023 -3.99606
rtoes -31.1044
lfemur -27.195 -3.4568 8.23222
ltibia 62.2885
lfoot -11.1392 -12.3351
ltoes -31.0744
